<mxfile host="app.diagrams.net" agent="Mozilla/5.0 (X11; Ubuntu; Linux x86_64; rv:132.0) Gecko/20100101 Firefox/132.0" version="24.8.6">
  <diagram name="Page-1" id="hvOHsJBfxK90zXUji3Ot">
    <mxGraphModel dx="814" dy="478" grid="0" gridSize="10" guides="1" tooltips="1" connect="1" arrows="1" fold="1" page="1" pageScale="1" pageWidth="827" pageHeight="1169" math="0" shadow="0">
      <root>
        <mxCell id="0" />
        <mxCell id="1" parent="0" />
        <mxCell id="16nufXNBjCH-NAIudgAz-2" value="MINSANTE" style="shape=umlActor;verticalLabelPosition=bottom;verticalAlign=top;html=1;" vertex="1" parent="1">
          <mxGeometry x="20" y="190" width="30" height="60" as="geometry" />
        </mxCell>
        <mxCell id="16nufXNBjCH-NAIudgAz-3" value="Système DOSER" style="swimlane;whiteSpace=wrap;html=1;" vertex="1" parent="1">
          <mxGeometry x="140" y="10" width="630" height="640" as="geometry" />
        </mxCell>
        <mxCell id="16nufXNBjCH-NAIudgAz-1" value="Fournir les données sur les hopitaux" style="ellipse;whiteSpace=wrap;html=1;" vertex="1" parent="16nufXNBjCH-NAIudgAz-3">
          <mxGeometry x="45" y="180" width="140" height="70" as="geometry" />
        </mxCell>
        <mxCell id="16nufXNBjCH-NAIudgAz-4" value="" style="endArrow=open;endFill=1;endSize=12;html=1;rounded=0;entryX=0;entryY=0.5;entryDx=0;entryDy=0;" edge="1" parent="16nufXNBjCH-NAIudgAz-3" target="16nufXNBjCH-NAIudgAz-1">
          <mxGeometry width="160" relative="1" as="geometry">
            <mxPoint x="-90" y="200" as="sourcePoint" />
            <mxPoint x="120" y="224.5" as="targetPoint" />
          </mxGeometry>
        </mxCell>
        <mxCell id="16nufXNBjCH-NAIudgAz-9" value="Établir la nomenclature des actes médicaux" style="ellipse;whiteSpace=wrap;html=1;" vertex="1" parent="16nufXNBjCH-NAIudgAz-3">
          <mxGeometry x="260" y="120" width="140" height="70" as="geometry" />
        </mxCell>
        <mxCell id="16nufXNBjCH-NAIudgAz-8" value="&lt;div&gt;Faire un suivi des&amp;nbsp;&lt;/div&gt;&lt;div&gt;accidents en collaboration avec l&#39;assurance&lt;/div&gt;" style="ellipse;whiteSpace=wrap;html=1;" vertex="1" parent="16nufXNBjCH-NAIudgAz-3">
          <mxGeometry x="45" y="360" width="150" height="70" as="geometry" />
        </mxCell>
        <mxCell id="16nufXNBjCH-NAIudgAz-6" value="Produire les statistiques sur les accidents" style="ellipse;whiteSpace=wrap;html=1;" vertex="1" parent="16nufXNBjCH-NAIudgAz-3">
          <mxGeometry x="55" y="505" width="140" height="70" as="geometry" />
        </mxCell>
        <mxCell id="16nufXNBjCH-NAIudgAz-5" value="Include" style="endArrow=open;endSize=12;dashed=1;html=1;rounded=0;exitX=0.5;exitY=0;exitDx=0;exitDy=0;entryX=0;entryY=0.5;entryDx=0;entryDy=0;" edge="1" parent="16nufXNBjCH-NAIudgAz-3" source="16nufXNBjCH-NAIudgAz-1" target="16nufXNBjCH-NAIudgAz-9">
          <mxGeometry width="160" relative="1" as="geometry">
            <mxPoint x="190" y="250" as="sourcePoint" />
            <mxPoint x="240" y="120" as="targetPoint" />
          </mxGeometry>
        </mxCell>
        <mxCell id="16nufXNBjCH-NAIudgAz-7" value="Définir les protocoles de soins sur les accidents" style="ellipse;whiteSpace=wrap;html=1;" vertex="1" parent="16nufXNBjCH-NAIudgAz-3">
          <mxGeometry x="260" y="240" width="140" height="70" as="geometry" />
        </mxCell>
        <mxCell id="16nufXNBjCH-NAIudgAz-11" value="Include" style="endArrow=open;endSize=12;dashed=1;html=1;rounded=0;exitX=0.5;exitY=1;exitDx=0;exitDy=0;entryX=0;entryY=0.5;entryDx=0;entryDy=0;" edge="1" parent="16nufXNBjCH-NAIudgAz-3" source="16nufXNBjCH-NAIudgAz-1" target="16nufXNBjCH-NAIudgAz-7">
          <mxGeometry width="160" relative="1" as="geometry">
            <mxPoint x="190" y="250" as="sourcePoint" />
            <mxPoint x="350" y="250" as="targetPoint" />
          </mxGeometry>
        </mxCell>
        <mxCell id="16nufXNBjCH-NAIudgAz-12" value="Assurer le suivi de toutes les victimes" style="ellipse;whiteSpace=wrap;html=1;" vertex="1" parent="16nufXNBjCH-NAIudgAz-3">
          <mxGeometry x="260" y="360" width="140" height="70" as="geometry" />
        </mxCell>
        <mxCell id="16nufXNBjCH-NAIudgAz-14" value="Include" style="endArrow=open;endSize=12;dashed=1;html=1;rounded=0;entryX=0;entryY=0.5;entryDx=0;entryDy=0;exitX=1;exitY=0.5;exitDx=0;exitDy=0;" edge="1" parent="16nufXNBjCH-NAIudgAz-3" source="16nufXNBjCH-NAIudgAz-8" target="16nufXNBjCH-NAIudgAz-12">
          <mxGeometry width="160" relative="1" as="geometry">
            <mxPoint x="200" y="390" as="sourcePoint" />
            <mxPoint x="330" y="310" as="targetPoint" />
          </mxGeometry>
        </mxCell>
        <mxCell id="16nufXNBjCH-NAIudgAz-16" value="Authentification" style="ellipse;whiteSpace=wrap;html=1;fillColor=none;strokeColor=#b85450;" vertex="1" parent="16nufXNBjCH-NAIudgAz-3">
          <mxGeometry x="470" y="290" width="140" height="90" as="geometry" />
        </mxCell>
        <mxCell id="16nufXNBjCH-NAIudgAz-17" value="Include" style="endArrow=open;endSize=12;dashed=1;html=1;rounded=0;entryX=0.5;entryY=0;entryDx=0;entryDy=0;exitX=0.386;exitY=-0.029;exitDx=0;exitDy=0;exitPerimeter=0;fillColor=#f8cecc;strokeColor=#b85450;" edge="1" parent="16nufXNBjCH-NAIudgAz-3" source="16nufXNBjCH-NAIudgAz-1" target="16nufXNBjCH-NAIudgAz-16">
          <mxGeometry width="160" relative="1" as="geometry">
            <mxPoint x="100" y="150" as="sourcePoint" />
            <mxPoint x="590" y="70" as="targetPoint" />
            <Array as="points">
              <mxPoint x="100" y="70" />
              <mxPoint x="540" y="70" />
            </Array>
          </mxGeometry>
        </mxCell>
        <mxCell id="16nufXNBjCH-NAIudgAz-18" value="Include" style="endArrow=open;endSize=12;dashed=1;html=1;rounded=0;entryX=0;entryY=1;entryDx=0;entryDy=0;fillColor=#f8cecc;strokeColor=#b85450;exitX=0.367;exitY=1;exitDx=0;exitDy=0;exitPerimeter=0;" edge="1" parent="16nufXNBjCH-NAIudgAz-3" source="16nufXNBjCH-NAIudgAz-8" target="16nufXNBjCH-NAIudgAz-16">
          <mxGeometry width="160" relative="1" as="geometry">
            <mxPoint x="100" y="450" as="sourcePoint" />
            <mxPoint x="560" y="490" as="targetPoint" />
            <Array as="points">
              <mxPoint x="100" y="490" />
              <mxPoint x="340" y="490" />
              <mxPoint x="460" y="490" />
            </Array>
          </mxGeometry>
        </mxCell>
        <mxCell id="16nufXNBjCH-NAIudgAz-19" value="Include" style="endArrow=open;endSize=12;dashed=1;html=1;rounded=0;entryX=0.5;entryY=1;entryDx=0;entryDy=0;fillColor=#f8cecc;strokeColor=#b85450;" edge="1" parent="16nufXNBjCH-NAIudgAz-3" target="16nufXNBjCH-NAIudgAz-16">
          <mxGeometry width="160" relative="1" as="geometry">
            <mxPoint x="194" y="550" as="sourcePoint" />
            <mxPoint x="550" y="550" as="targetPoint" />
            <Array as="points">
              <mxPoint x="540" y="550" />
            </Array>
          </mxGeometry>
        </mxCell>
        <mxCell id="16nufXNBjCH-NAIudgAz-13" value="" style="endArrow=open;endFill=1;endSize=12;html=1;rounded=0;entryX=0;entryY=0.5;entryDx=0;entryDy=0;exitX=1;exitY=0.3333333333333333;exitDx=0;exitDy=0;exitPerimeter=0;" edge="1" parent="1" source="16nufXNBjCH-NAIudgAz-2" target="16nufXNBjCH-NAIudgAz-8">
          <mxGeometry width="160" relative="1" as="geometry">
            <mxPoint x="110" y="240" as="sourcePoint" />
            <mxPoint x="290" y="310" as="targetPoint" />
          </mxGeometry>
        </mxCell>
        <mxCell id="16nufXNBjCH-NAIudgAz-15" value="" style="endArrow=open;endFill=1;endSize=12;html=1;rounded=0;exitX=1;exitY=1;exitDx=0;exitDy=0;exitPerimeter=0;entryX=0;entryY=0.5;entryDx=0;entryDy=0;" edge="1" parent="1" source="16nufXNBjCH-NAIudgAz-2" target="16nufXNBjCH-NAIudgAz-6">
          <mxGeometry width="160" relative="1" as="geometry">
            <mxPoint x="175" y="370" as="sourcePoint" />
            <mxPoint x="335" y="370" as="targetPoint" />
          </mxGeometry>
        </mxCell>
      </root>
    </mxGraphModel>
  </diagram>
</mxfile>
